<?xml version="1.0" encoding="UTF-8" standalone="no"?>
<svg
   xmlns:dc="http://purl.org/dc/elements/1.1/"
   xmlns:cc="http://creativecommons.org/ns#"
   xmlns:rdf="http://www.w3.org/1999/02/22-rdf-syntax-ns#"
   xmlns:svg="http://www.w3.org/2000/svg"
   xmlns="http://www.w3.org/2000/svg"
   id="svg8"
   version="1.1"
   viewBox="0 0 93.605797 13.077975"
   height="13.077975mm"
   width="93.605797mm">
  <defs
     id="defs2" />
  <metadata
     id="metadata5">
    <rdf:RDF>
      <cc:Work
         rdf:about="">
        <dc:format>image/svg+xml</dc:format>
        <dc:type
           rdf:resource="http://purl.org/dc/dcmitype/StillImage" />
        <dc:title></dc:title>
      </cc:Work>
    </rdf:RDF>
  </metadata>
  <g
     transform="translate(-0.34018148,-0.55327348)"
     id="layer1">
    <g
       transform="matrix(0.26458333,0,0,0.26458333,-0.96383636,0.83675562)"
       id="g20"
       style="fill:#000000">
      <path
         d="M 24,0 C 14.061,0 6,8.061 6,18 6,27.939 24,48 24,48 24,48 42,27.939 42,18 42,8.061 33.939,0 24,0 Z m 0,30 C 17.373,30 12,24.627 12,18 12,11.373 17.373,6 24,6 c 6.627,0 12,5.373 12,12 0,6.627 -5.373,12 -12,12 z m 0,-18 c -3.312,0 -6,2.688 -6,6 0,3.312 2.688,6 6,6 3.312,0 6,-2.688 6,-6 0,-3.312 -2.688,-6 -6,-6 z"
         id="pin" />
    </g>
    <g
       transform="matrix(0.26458333,0,0,0.26458333,11.803772,0.8472727)"
       id="g32"
       style="fill:#000000">
      <path
         d="M 46.599,40.236 36.054,29.691 C 37.89,26.718 39,23.25 39,19.5 39,8.73 30.27,0 19.5,0 8.73,0 0,8.73 0,19.5 0,30.27 8.73,39 19.5,39 c 3.75,0 7.218,-1.11 10.188,-2.943 l 10.548,10.545 c 1.758,1.758 4.605,1.758 6.363,0 1.758,-1.758 1.758,-4.608 0,-6.366 z M 19.5,33 C 12.045,33 6,26.955 6,19.5 6,12.045 12.045,6 19.5,6 26.955,6 33,12.045 33,19.5 33,26.955 26.955,33 19.5,33 Z"
         id="search" />
    </g>
    <g
       transform="matrix(0.26458333,0,0,0.26458333,26.628423,-0.01369055)"
       id="g44"
       style="fill:#000000">
      <path
         d="m 0,27 c 0,-6.627 5.373,-12 12,-12 1.14,0 2.223,0.21 3.267,0.507 C 16.416,10.077 21.228,6 27,6 c 6.627,0 12,5.373 12,12 0,1.059 -0.183,2.067 -0.438,3.045 C 38.709,21.036 38.85,21 39,21 c 4.971,0 9,4.032 9,9 v 0 3 c 0,4.971 -4.029,9 -9,9 H 12 C 5.373,42 0,36.627 0,30 v 0 z"
         id="cloud" />
    </g>
    <g
       transform="matrix(0.26458333,0,0,0.26458333,40.708036,0.64776752)"
       id="g92"
       style="fill:#000000">
      <path
         d="m 45,21 h -3 c -0.105,0 -0.192,0.051 -0.297,0.06 -0.456,-2.769 -1.527,-5.316 -3.093,-7.506 0.075,-0.063 0.168,-0.087 0.24,-0.159 l 2.121,-2.121 c 1.173,-1.173 1.173,-3.069 0,-4.242 -1.173,-1.173 -3.072,-1.173 -4.245,0 L 34.605,9.15 C 34.536,9.219 34.509,9.315 34.446,9.39 32.259,7.821 29.709,6.753 26.94,6.297 26.949,6.192 27,6.105 27,6 V 3 C 27,1.344 25.659,0 24,0 22.341,0 21,1.344 21,3 v 3 c 0,0.105 0.051,0.192 0.06,0.297 C 18.291,6.753 15.741,7.821 13.554,9.39 13.491,9.315 13.464,9.222 13.395,9.15 L 11.274,7.029 c -1.173,-1.173 -3.072,-1.173 -4.245,0 -1.17,1.173 -1.17,3.069 0,4.242 l 2.124,2.121 C 9.222,13.464 9.312,13.491 9.39,13.554 7.821,15.744 6.753,18.291 6.297,21.06 6.192,21.051 6.105,21 6,21 H 3 c -1.659,0 -3,1.344 -3,3 0,1.656 1.341,3 3,3 h 3 c 0.105,0 0.192,-0.048 0.297,-0.06 0.456,2.769 1.527,5.316 3.093,7.506 -0.075,0.063 -0.168,0.087 -0.237,0.159 l -2.124,2.121 c -1.17,1.173 -1.17,3.072 0,4.242 1.173,1.173 3.072,1.173 4.245,0 l 2.121,-2.121 c 0.069,-0.069 0.096,-0.165 0.159,-0.24 2.187,1.569 4.737,2.637 7.506,3.096 C 21.051,41.808 21,41.895 21,42 v 3 c 0,1.659 1.341,3 3,3 1.659,0 3,-1.341 3,-3 v -3 c 0,-0.105 -0.051,-0.192 -0.06,-0.297 2.769,-0.459 5.316,-1.527 7.506,-3.096 0.063,0.075 0.087,0.171 0.159,0.24 l 2.121,2.121 c 1.173,1.173 3.072,1.173 4.245,0 1.173,-1.17 1.173,-3.069 0,-4.242 L 38.85,34.605 c -0.072,-0.069 -0.165,-0.093 -0.24,-0.159 1.566,-2.19 2.637,-4.737 3.093,-7.506 C 41.808,26.952 41.895,27 42,27 h 3 c 1.659,0 3,-1.344 3,-3 0,-1.656 -1.341,-3 -3,-3 z M 24,33 c -4.971,0 -9,-4.032 -9,-9 0,-4.971 4.029,-9 9,-9 4.971,0 9,4.029 9,9 0,4.968 -4.029,9 -9,9 z"
         id="settings" />
    </g>
    <g
       transform="matrix(0.26458333,0,0,0.26458333,54.220583,0.64776759)"
       id="g104"
       style="fill:#000000">
      <path
         d="m 30,18 v 3 h 3 c 1.659,0 3,1.341 3,3 0,1.659 -1.341,3 -3,3 h -6 c -1.659,0 -3,-1.341 -3,-3 v -6 c 0,-1.659 1.341,-3 3,-3 1.659,0 3,1.341 3,3 z m -3,27 c -6.492,0 -12.297,-2.949 -16.149,-7.578 0.087,-0.066 0.189,-0.099 0.27,-0.18 L 15.342,33.33 C 18.087,36.762 22.263,39 27,39 35.286,39 42,32.286 42,24 42,15.717 35.286,9 27,9 19.743,9 13.692,14.154 12.303,21 H 15 c 1.212,0 2.31,0.732 2.772,1.851 0.462,1.125 0.204,2.415 -0.651,3.27 l -6,6 C 10.536,32.706 9.768,33 9,33 8.232,33 7.464,32.706 6.879,32.121 l -6,-6 C 0.021,25.266 -0.234,23.97 0.228,22.851 0.69,21.732 1.788,21 3,21 H 6.24 C 7.695,10.827 16.422,3 27,3 38.598,3 48,12.402 48,24 48,35.598 38.598,45 27,45 Z"
         id="rewind" />
    </g>
    <g
       transform="matrix(0.26458333,0,0,0.26458333,67.827827,0.64776774)"
       id="g116"
       style="fill:#000000">
      <path
         d="M 24,45 C 7.782,45 0,24 0,24 0,24 7.782,3 24,3 40.218,3 48,24 48,24 48,24 40.218,45 24,45 Z M 24,9 C 15.714,9 9,15.714 9,24 9,32.286 15.714,39 24,39 32.286,39 39,32.286 39,24 39,15.714 32.286,9 24,9 Z m 0,24 c -4.971,0 -9,-4.029 -9,-9 0,-1.059 0.216,-2.058 0.552,-3 H 21 V 15.552 C 21.942,15.216 22.941,15 24,15 c 4.971,0 9,4.029 9,9 0,4.971 -4.029,9 -9,9 z"
         id="preview" />
    </g>
    <g
       transform="matrix(0.26458333,0,0,0.26458333,80.9625,0.55327298)"
       id="g140"
       style="fill:#000000">
      <path
         d="M 24,48 C 10.746,48 0,37.254 0,24 0,10.746 10.746,0 24,0 37.254,0 48,10.746 48,24 48,37.254 37.254,48 24,48 Z M 24,6 C 14.061,6 6,14.061 6,24 6,33.939 14.061,42 24,42 33.939,42 42,33.939 42,24 42,14.061 33.939,6 24,6 Z m 8.484,26.484 c -1.173,1.173 -3.069,1.173 -4.242,0 L 24,28.242 19.758,32.484 c -1.173,1.173 -3.072,1.173 -4.245,0 -1.173,-1.173 -1.173,-3.069 0,-4.242 L 19.758,24 15.513,19.758 c -1.173,-1.173 -1.173,-3.072 0,-4.245 1.173,-1.173 3.072,-1.173 4.245,0 L 24,19.758 28.242,15.513 c 1.173,-1.173 3.069,-1.173 4.242,0 1.173,1.173 1.173,3.072 0,4.245 L 28.242,24 l 4.242,4.242 c 1.173,1.173 1.173,3.072 0,4.242 z"
         id="delete" />
    </g>
  </g>
</svg>
